<svg height="512pt" viewBox="0 0 512 512" width="512pt" xmlns="http://www.w3.org/2000/svg"><path d="m512 256c0 141.386719-114.613281 256-256 256s-256-114.613281-256-256 114.613281-256 256-256 256 114.613281 256 256zm0 0" fill="#ffe000"/><path d="m512 256c0-6.65625-.253906-13.25-.753906-19.777344l-64.738282-64.738281-32.808593 66.175781-66.175781-66.175781-56.328126 69.394531-69.390624-69.394531-3.257813 5.113281-51.265625-51.269531-46.492188 40.0625 28.261719 28.257813-83.558593 134.148437 184.121093 184.121094c2.125.054687 4.25.082031 6.386719.082031 141.386719 0 256-114.613281 256-256zm0 0" fill="#ffc200"/><path d="m198.886719 279.90625c-16.953125 0-30.695313-13.742188-30.695313-30.695312 0-16.953126 13.742188-30.695313 30.695313-30.695313 9.117187 0 17.296875 3.984375 22.914062 10.296875v-57.328125h-62.789062c9.164062-5.308594 15.328125-15.214844 15.328125-26.566406 0-16.953125-13.742188-30.695313-30.695313-30.695313-16.949219 0-30.695312 13.742188-30.695312 30.695313 0 11.351562 6.167969 21.257812 15.332031 26.566406h-62.792969v156.3125h156.3125v-58.1875c-5.617187 6.3125-13.796875 10.296875-22.914062 10.296875zm0 0" fill="#ff432e"/><path d="m198.886719 279.90625c-14.652344 0-26.898438-10.269531-29.953125-24h-103.441406v71.890625h156.3125v-58.1875c-5.621094 6.3125-13.800782 10.296875-22.917969 10.296875zm0 0" fill="#db0404"/><path d="m398.617188 194.402344c0 16.949218-13.742188 30.695312-30.695313 30.695312-16.949219 0-30.695313-13.746094-30.695313-30.695312 0-9.117188 3.984376-17.296875 10.296876-22.917969h-57.328126v62.792969c-5.308593-9.164063-15.214843-15.332032-26.566406-15.332032-16.953125 0-30.695312 13.742188-30.695312 30.695313s13.742187 30.695313 30.695312 30.695313c11.351563 0 21.257813-6.164063 26.566406-15.328126v62.789063h156.3125v-156.3125h-58.1875c6.3125 5.621094 10.296876 13.800781 10.296876 22.917969zm0 0" fill="#27488f"/><path d="m233.574219 255.90625c2.894531 13.945312 15.25 24.429688 30.054687 24.429688 11.351563 0 21.257813-6.167969 26.566406-15.328126v62.789063h156.3125v-71.894531h-212.933593zm0 0" fill="#12254c"/></svg>